<svg width="148" height="22" viewBox="0 0 148 22" fill="none" xmlns="http://www.w3.org/2000/svg">
<path d="M11.9753 0.287719L15.2517 6.95419L22.5891 8.02073C22.6823 8.03453 22.7697 8.07404 22.8415 8.1348C22.9133 8.19557 22.9666 8.27517 22.9955 8.36466C23.0245 8.45415 23.0278 8.54997 23.0052 8.64131C22.9825 8.73266 22.9348 8.81592 22.8674 8.88171L17.5533 14.0728L18.7998 21.4008C18.8159 21.4934 18.8057 21.5887 18.7703 21.6759C18.7349 21.7631 18.6758 21.8387 18.5997 21.8941C18.5235 21.9495 18.4334 21.9825 18.3395 21.9893C18.2457 21.9962 18.1518 21.9766 18.0685 21.9328L11.5077 18.4761L4.94023 21.9391C4.85696 21.9831 4.76304 22.0029 4.66914 21.9962C4.57525 21.9895 4.48514 21.9567 4.40907 21.9014C4.333 21.846 4.27401 21.7705 4.23881 21.6833C4.20361 21.5961 4.19361 21.5008 4.20994 21.4081L5.47046 14.0777L0.164782 8.8908C0.097508 8.82507 0.0499642 8.74185 0.0275044 8.65052C0.00504458 8.55919 0.00856082 8.46337 0.0376572 8.37386C0.0667535 8.28435 0.120274 8.2047 0.192192 8.14388C0.26411 8.08306 0.351568 8.04348 0.444718 8.02961L7.7842 6.95718L11.0749 0.288079C11.1159 0.203568 11.18 0.132283 11.2596 0.0823913C11.3393 0.0324992 11.4314 0.00601749 11.5254 0.00597983C11.6193 0.00594218 11.7114 0.0323501 11.7909 0.0821784C11.8705 0.132007 11.9344 0.20324 11.9753 0.287719Z" fill="#FDE047"/>
<path d="M43.0235 0.28778L46.3 6.95425L53.6374 8.02079C53.7305 8.03459 53.8179 8.0741 53.8897 8.13486C53.9615 8.19563 54.0149 8.27524 54.0438 8.36472C54.0727 8.45421 54.0761 8.55003 54.0534 8.64138C54.0308 8.73272 53.9831 8.81598 53.9157 8.88177L48.6016 14.0729L49.8481 21.4009C49.8641 21.4935 49.8539 21.5888 49.8185 21.676C49.7831 21.7632 49.724 21.8387 49.6479 21.8941C49.5718 21.9495 49.4817 21.9825 49.3878 21.9894C49.2939 21.9962 49.2 21.9767 49.1168 21.9329L42.5559 18.4762L35.9885 21.9392C35.9052 21.9831 35.8113 22.0029 35.7174 21.9962C35.6235 21.9896 35.5334 21.9567 35.4573 21.9014C35.3812 21.8461 35.3223 21.7706 35.2871 21.6834C35.2519 21.5962 35.2419 21.5009 35.2582 21.4082L36.5187 14.0777L31.213 8.89086C31.1458 8.82513 31.0982 8.74191 31.0758 8.65058C31.0533 8.55925 31.0568 8.46344 31.0859 8.37392C31.115 8.28441 31.1685 8.20476 31.2404 8.14394C31.3124 8.08312 31.3998 8.04354 31.493 8.02967L38.8324 6.95724L42.1232 0.28814C42.1642 0.203629 42.2282 0.132344 42.3079 0.0824523C42.3875 0.0325602 42.4796 0.00607852 42.5736 0.00604087C42.6676 0.00600322 42.7596 0.0324111 42.8392 0.0822394C42.9188 0.132068 42.9826 0.203301 43.0235 0.28778Z" fill="#FDE047"/>
<path d="M74.0695 0.287719L77.3459 6.95419L84.6834 8.02073C84.7765 8.03453 84.8639 8.07404 84.9357 8.1348C85.0075 8.19557 85.0608 8.27517 85.0898 8.36466C85.1187 8.45415 85.122 8.54997 85.0994 8.64131C85.0767 8.73266 85.029 8.81592 84.9616 8.88171L79.6475 14.0728L80.894 21.4008C80.9101 21.4934 80.8999 21.5887 80.8645 21.6759C80.8291 21.7631 80.77 21.8387 80.6939 21.8941C80.6177 21.9495 80.5276 21.9825 80.4337 21.9893C80.3399 21.9962 80.246 21.9766 80.1627 21.9328L73.6019 18.4761L67.0344 21.9391C66.9512 21.9831 66.8572 22.0029 66.7633 21.9962C66.6695 21.9895 66.5794 21.9567 66.5033 21.9014C66.4272 21.846 66.3682 21.7705 66.333 21.6833C66.2978 21.5961 66.2878 21.5008 66.3041 21.4081L67.5647 14.0777L62.259 8.8908C62.1917 8.82507 62.1442 8.74185 62.1217 8.65052C62.0993 8.55919 62.1028 8.46337 62.1319 8.37386C62.161 8.28435 62.2145 8.2047 62.2864 8.14388C62.3583 8.08306 62.4458 8.04348 62.5389 8.02961L69.8784 6.95718L73.1691 0.288079C73.2101 0.203568 73.2742 0.132283 73.3538 0.0823913C73.4335 0.0324992 73.5256 0.00601749 73.6196 0.00597983C73.7135 0.00594218 73.8056 0.0323501 73.8851 0.0821784C73.9647 0.132007 74.0286 0.20324 74.0695 0.287719Z" fill="#FDE047"/>
<path d="M105.118 0.287719L108.394 6.95419L115.732 8.02073C115.825 8.03453 115.912 8.07404 115.984 8.1348C116.056 8.19557 116.109 8.27517 116.138 8.36466C116.167 8.45415 116.17 8.54997 116.148 8.64131C116.125 8.73266 116.078 8.81592 116.01 8.88171L110.696 14.0728L111.942 21.4008C111.959 21.4934 111.948 21.5887 111.913 21.6759C111.878 21.7631 111.818 21.8387 111.742 21.8941C111.666 21.9495 111.576 21.9825 111.482 21.9893C111.388 21.9962 111.294 21.9766 111.211 21.9328L104.65 18.4761L98.0829 21.9391C97.9996 21.9831 97.9057 22.0029 97.8118 21.9962C97.7179 21.9895 97.6278 21.9567 97.5517 21.9014C97.4757 21.846 97.4167 21.7705 97.3815 21.6833C97.3463 21.5961 97.3363 21.5008 97.3526 21.4081L98.6131 14.0777L93.3075 8.8908C93.2402 8.82507 93.1926 8.74185 93.1702 8.65052C93.1477 8.55919 93.1512 8.46337 93.1803 8.37386C93.2094 8.28435 93.2629 8.2047 93.3349 8.14388C93.4068 8.08306 93.4942 8.04348 93.5874 8.02961L100.927 6.95718L104.218 0.288079C104.259 0.203568 104.323 0.132283 104.402 0.0823913C104.482 0.0324992 104.574 0.00601749 104.668 0.00597983C104.762 0.00594218 104.854 0.0323501 104.934 0.0821784C105.013 0.132007 105.077 0.20324 105.118 0.287719Z" fill="#FDE047"/>
<path d="M136.164 0.28778L139.44 6.95425L146.778 8.02079C146.871 8.03459 146.958 8.0741 147.03 8.13486C147.102 8.19563 147.155 8.27524 147.184 8.36472C147.213 8.45421 147.216 8.55003 147.194 8.64138C147.171 8.73272 147.123 8.81598 147.056 8.88177L141.742 14.0729L142.988 21.4009C143.004 21.4935 142.994 21.5888 142.959 21.676C142.923 21.7632 142.864 21.8387 142.788 21.8941C142.712 21.9495 142.622 21.9825 142.528 21.9894C142.434 21.9962 142.34 21.9767 142.257 21.9329L135.696 18.4762L129.129 21.9392C129.045 21.9831 128.951 22.0029 128.858 21.9962C128.764 21.9896 128.674 21.9567 128.597 21.9014C128.521 21.8461 128.462 21.7706 128.427 21.6834C128.392 21.5962 128.382 21.5009 128.398 21.4082L129.659 14.0777L124.353 8.89086C124.286 8.82513 124.238 8.74191 124.216 8.65058C124.193 8.55925 124.197 8.46344 124.226 8.37392C124.255 8.28441 124.309 8.20476 124.381 8.14394C124.453 8.08312 124.54 8.04354 124.633 8.02967L131.973 6.95724L135.263 0.28814C135.304 0.203629 135.368 0.132344 135.448 0.0824523C135.528 0.0325602 135.62 0.00607852 135.714 0.00604087C135.808 0.00600322 135.9 0.0324111 135.979 0.0822394C136.059 0.132068 136.123 0.203301 136.164 0.28778Z" fill="#FDE047"/>
</svg>
